<?xml version="1.0" standalone="no"?>
<!DOCTYPE svg PUBLIC "-//W3C//DTD SVG 20010904//EN"
 "http://www.w3.org/TR/2001/REC-SVG-20010904/DTD/svg10.dtd">
<svg version="1.0" xmlns="http://www.w3.org/2000/svg"
 width="1136.000000pt" height="1136.000000pt" viewBox="0 0 1136.000000 1136.000000"
 preserveAspectRatio="xMidYMid meet">
<metadata>
Created by potrace 1.14, written by Peter Selinger 2001-2017
</metadata>
<g transform="translate(0.000000,1136.000000) scale(0.100000,-0.100000)"
fill="#000000" stroke="none">
<path d="M5532 10133 l3 -458 138 -3 137 -3 0 461 0 460 -140 0 -140 0 2 -457z"/>
<path d="M1660 8915 l-95 -95 315 -317 c173 -175 316 -319 318 -322 1 -3 46
39 100 92 l97 97 -320 320 -320 320 -95 -95z"/>
<path d="M9285 8690 l-320 -320 96 -96 97 -96 316 318 c174 175 316 321 316
324 0 3 -42 47 -93 98 l-92 92 -320 -320z"/>
<path d="M5495 8334 c-701 -42 -1274 -228 -1835 -598 -216 -143 -388 -283
-576 -470 -296 -297 -513 -600 -696 -971 -396 -806 -483 -1706 -247 -2559 178
-643 515 -1215 980 -1660 269 -258 537 -447 880 -621 586 -298 1212 -435 1841
-405 537 27 978 137 1433 360 387 189 669 392 981 704 310 311 502 577 691
961 103 210 170 379 229 583 254 879 187 1784 -192 2571 -35 74 -66 136 -68
138 -2 2 -140 -75 -307 -170 -304 -174 -1378 -790 -1454 -834 -70 -40 -144
-25 -202 40 -45 51 -52 105 -20 160 14 23 33 50 43 59 16 14 548 321 1524 879
124 71 231 132 238 137 10 7 -22 56 -128 195 -166 220 -263 330 -428 488 -573
552 -1337 906 -2142 994 -139 15 -439 25 -545 19z m446 -334 c408 -41 761
-137 1142 -311 214 -98 477 -261 677 -420 123 -97 351 -318 452 -437 60 -70
69 -85 57 -96 -8 -7 -106 -66 -219 -131 -113 -65 -288 -166 -390 -225 -102
-59 -288 -167 -415 -240 -421 -243 -468 -273 -516 -320 -170 -170 -173 -476
-6 -657 125 -136 334 -192 503 -134 34 11 205 103 380 204 175 101 508 293
738 426 230 133 422 239 427 234 14 -15 98 -274 128 -396 193 -787 100 -1590
-264 -2307 -163 -320 -358 -583 -631 -851 -539 -527 -1214 -844 -1971 -924
-160 -17 -470 -19 -628 -5 -303 28 -647 110 -930 222 -129 51 -389 181 -507
254 -453 279 -843 667 -1112 1107 -367 599 -530 1333 -455 2047 104 991 641
1882 1464 2429 449 298 942 473 1490 530 118 12 467 13 586 1z"/>
<path d="M0 4900 l0 -140 458 2 457 3 0 135 0 135 -457 3 -458 2 0 -140z"/>
<path d="M10444 5027 c-2 -7 -3 -69 -2 -138 l3 -124 458 -3 457 -2 0 140 0
140 -455 0 c-366 0 -457 -3 -461 -13z"/>
<path d="M1895 1300 l-320 -320 98 -97 97 -98 322 322 323 323 -95 95 c-52 52
-97 95 -100 95 -3 0 -149 -144 -325 -320z"/>
<path d="M9057 1512 c-48 -48 -87 -92 -87 -97 0 -6 143 -153 318 -328 l317
-317 98 98 97 97 -318 318 c-174 174 -322 317 -327 317 -6 0 -50 -39 -98 -88z"/>
</g>
</svg>
